       American.Gangster.2007.UNRATED.720p.BRRip.x264.AAC.mp4-Zen_Bud

Format                           : MPEG-4
File size                        : 1.44 GiB
Duration                         : 2h 55mn
Overall bit rate                 : 1 172 Kbps


Video

Format                           : AVC
Format profile                   : High@L3.1
Format settings, CABAC           : Yes
Format settings, ReFrames        : 4 frames
Duration                         : 2h 55mn
Bit rate                         : 1 007 Kbps
Width                            : 1 280 pixels
Height                           : 704 pixels
Display aspect ratio             : 16:9
Frame rate mode                  : Variable
Frame rate                       : 23.976 fps
Stream size                      : 1.24 GiB (86%)
Writing library                  : x264 core 115


Audio

Format                           : AAC
Codec ID                         : 40
Duration                         : 2h 55mn
Bit rate                         : 160 Kbps
Channel(s)                       : 2 channels
Channel positions                : Front: L R
Sampling rate                    : 48.0 KHz
Stream size                      : 201 MiB (14%)
Language                         : English

Subtitel                         : Svenska [.srt ]

===========================================================================

In 1970s America, a detective works to bring down the drug empire of Frank Lucas, a heroin kingpin from Manhattan, who is smuggling the drug into the country from the Far East

===========================================================================

